<?xml version="1.0" encoding="UTF-8" standalone="no"?>
<svg
   xmlns:dc="http://purl.org/dc/elements/1.1/"
   xmlns:cc="http://creativecommons.org/ns#"
   xmlns:rdf="http://www.w3.org/1999/02/22-rdf-syntax-ns#"
   xmlns:svg="http://www.w3.org/2000/svg"
   xmlns="http://www.w3.org/2000/svg"
   xmlns:sodipodi="http://sodipodi.sourceforge.net/DTD/sodipodi-0.dtd"
   xmlns:inkscape="http://www.inkscape.org/namespaces/inkscape"
   version="1.1"
   id="svg2"
   xml:space="preserve"
   width="257.33334"
   height="257.33334"
   viewBox="0 0 257.33334 257.33334"
   sodipodi:docname="Aras_Cargo.eps"><metadata
     id="metadata8"><rdf:RDF><cc:Work
         rdf:about=""><dc:format>image/svg+xml</dc:format><dc:type
           rdf:resource="http://purl.org/dc/dcmitype/StillImage" /></cc:Work></rdf:RDF></metadata><defs
     id="defs6" /><sodipodi:namedview
     pagecolor="#ffffff"
     bordercolor="#666666"
     borderopacity="1"
     objecttolerance="10"
     gridtolerance="10"
     guidetolerance="10"
     inkscape:pageopacity="0"
     inkscape:pageshadow="2"
     inkscape:window-width="640"
     inkscape:window-height="480"
     id="namedview4" /><g
     id="g10"
     inkscape:groupmode="layer"
     inkscape:label="ink_ext_XXXXXX"
     transform="matrix(1.3333333,0,0,-1.3333333,0,257.33333)"><g
       id="g12"
       transform="scale(0.1)"><path
         d="M 0,1927.56 H 1927.56 V 0 H 0 v 1927.56"
         style="fill:#ffffff;fill-opacity:1;fill-rule:evenodd;stroke:none"
         id="path14" /><path
         d="m 1494.06,1344.76 325.6,-325.61 c 30.48,-30.47 30.48,-80.13 0,-111.17 l -325.6,-325.609 c -31.04,-30.473 -80.7,-30.473 -111.18,0 L 1057.27,907.98 c -31.03,31.04 -31.03,80.7 0,111.17 l 325.61,325.61 c 30.48,31.04 80.14,31.04 111.18,0"
         style="fill:#ed192d;fill-opacity:1;fill-rule:evenodd;stroke:none"
         id="path16" /><path
         d="m 1584.91,1210.45 c 0,0 1.13,-204.84 0,-248.86 0,-17.492 -15.8,-32.168 -33.3,-32.168 -2.82,0 -6.2,0 -6.77,0 H 1387.4 l 197.51,281.028"
         style="fill:#ffffff;fill-opacity:1;fill-rule:evenodd;stroke:none"
         id="path18" /><path
         d="M 1579.27,1209.89 1321.94,929.422 h -147.28 c -7.34,0 -12.42,5.644 -10.16,12.98 1.13,3.953 5.07,7.903 8.46,10.161 46.27,29.343 406.31,257.327 406.31,257.327"
         style="fill:#ffffff;fill-opacity:1;fill-rule:evenodd;stroke:none"
         id="path20" /><path
         d="m 824.215,921.523 c -29.348,0 -57.563,4.516 -84.082,11.29 l 23.699,56.429 c 19.188,-8.465 39.5,-15.801 63.203,-15.801 17.492,0 44.582,5.641 53.047,29.349 14.106,39.5 -81.262,70.53 -58.125,135.43 16.363,45.71 59.254,76.75 133.742,76.75 27.653,0 55.871,-3.95 81.831,-9.03 l -22.01,-55.3 c -14.68,6.77 -31.606,12.98 -52.485,12.98 -23.137,0 -47.965,-2.83 -56.43,-27.09 -12.98,-35.55 81.825,-68.85 56.997,-138.823 -20.879,-58.125 -91.985,-76.184 -139.387,-76.184"
         style="fill:#1a387b;fill-opacity:1;fill-rule:evenodd;stroke:none"
         id="path22" /><path
         d="m 666.207,988.68 c 8.465,20.31 19.184,46.84 34.422,84.64 -38.375,-25.95 -131.484,-23.13 -149.543,-73.355 -9.031,-26.524 12.98,-34.988 35.551,-33.293 36.117,2.254 79.57,22.008 79.57,22.008 z M 548.828,921.523 c -90.855,-3.382 -81.262,54.176 -72.234,79.567 40.633,114 226.293,77.31 247.738,138.26 9.594,27.09 -19.754,32.73 -40.07,31.04 -26.524,-2.82 -41.758,-6.21 -64.332,-11.85 l 18.062,46.27 c 29.906,4.51 41.192,7.33 82.387,10.16 49.66,3.95 105.527,-11.85 83.519,-72.8 -14.671,-40.06 -55.867,-129.22 -85.773,-213.873 l -75.059,-0.567 c 3.391,7.903 7.336,19.754 7.336,19.754 0,0 -53.605,-24.265 -101.574,-25.961"
         style="fill:#1a387b;fill-opacity:1;fill-rule:evenodd;stroke:none"
         id="path24" /><path
         d="m 1065.74,1161.36 c 2.26,10.16 5.08,19.19 7.9,29.34 h 8.47 c 2.25,0 5.08,-1.13 3.94,-5.07 -1.12,-5.08 -5.07,-6.21 -9.59,-6.21 -1.12,0 -2.82,0.56 -3.38,0.56 1.69,-6.21 3.95,-12.41 5.64,-18.62 h 8.47 c -2.83,5.08 -5.08,10.16 -7.34,15.23 3.38,0 10.72,1.13 12.41,9.6 1.69,6.21 -1.69,8.46 -7.9,8.46 h -15.8 c -2.82,-10.72 -6.2,-22.01 -9.02,-33.29 z m 2.82,-12.41 c 19.19,0 33.3,12.97 37.25,29.34 3.95,14.67 -2.26,27.65 -21.45,27.65 -18.62,0 -33.29,-12.98 -37.24,-29.35 -3.39,-14.67 2.26,-27.64 21.44,-27.64 z m 1.13,4.51 c -14.11,0 -19.19,10.72 -16.37,23.13 3.39,14.11 15.81,24.84 29.91,24.84 14.11,0 19.75,-10.73 16.37,-23.14 -3.39,-14.11 -15.8,-24.83 -29.91,-24.83"
         style="fill:#1a387b;fill-opacity:1;fill-rule:evenodd;stroke:none"
         id="path26" /><path
         d="m 279.648,988.68 c 8.469,20.31 19.754,46.84 34.989,84.64 -38.371,-25.95 -132.047,-23.13 -149.543,-73.355 -9.594,-26.524 12.98,-34.988 35.551,-33.293 35.55,2.254 79.003,22.008 79.003,22.008 z M 162.273,921.523 c -90.2886,-3.382 -80.6988,54.176 -71.6675,79.567 40.0665,114 225.7225,77.31 247.7305,138.26 9.598,27.09 -19.746,32.73 -40.629,31.04 -26.523,-2.82 -41.195,-6.21 -63.766,-11.85 l 17.493,46.27 c 29.91,4.51 41.195,7.33 82.957,10.16 49.093,3.95 104.961,-11.85 82.953,-72.8 -14.11,-40.06 -55.305,-129.22 -85.774,-213.873 l -75.058,-0.567 c 3.953,7.903 7.902,19.754 7.902,19.754 0,0 -53.609,-24.265 -102.141,-25.961"
         style="fill:#1a387b;fill-opacity:1;fill-rule:evenodd;stroke:none"
         id="path28" /><path
         d="M 507.633,1124.68 C 489.574,1076.15 433.141,928.297 433.141,928.297 l -77.309,-0.567 c 2.258,5.083 45.711,118.51 76.746,200.9 33.86,78.44 73.926,90.85 134.309,88.03 16.929,-0.56 35.551,-3.95 51.351,-6.77 l -20.879,-48.53 c -31.601,7.33 -72.234,11.28 -89.726,-36.68"
         style="fill:#1a387b;fill-opacity:1;fill-rule:evenodd;stroke:none"
         id="path30" /><path
         d="m 398.723,773.109 c -10.727,-3.386 -22.008,-5.644 -32.735,-5.644 -23.699,0 -30.472,14.109 -22.57,37.246 8.465,24.266 27.086,41.758 52.48,41.758 11.286,0 20.879,-2.821 30.477,-6.207 l 7.336,27.09 c -10.727,3.382 -22.012,5.078 -34.988,5.078 -66.59,0 -86.907,-58.688 -90.293,-68.848 -14.11,-39.5 0.562,-62.074 40.066,-62.074 11.852,0 24.266,1.695 36.117,4.515 l 14.11,27.086"
         style="fill:#1a387b;fill-opacity:1;fill-rule:evenodd;stroke:none"
         id="path32" /><path
         d="m 577.043,692.414 c 16.367,-4.516 34.426,-7.336 53.047,-7.336 36.117,0 64.332,11.848 79.004,51.352 21.441,57.558 40.629,103.269 51.918,129.793 -16.367,3.382 -33.297,6.207 -51.352,6.207 -73.93,0 -102.144,-52.485 -110.043,-74.492 -11.285,-33.293 1.129,-54.735 34.988,-54.735 18.059,0 36.68,7.336 51.352,21.442 h 0.563 c -10.719,-27.653 -19.184,-54.739 -56.993,-54.739 -16.367,0 -31.039,3.949 -44.586,9.594 z m 141.645,153.492 c -6.208,-15.801 -11.852,-30.472 -18.625,-45.144 -9.59,-16.93 -26.52,-33.297 -45.145,-33.297 -20.313,0 -25.957,13.547 -19.188,33.297 4.516,12.98 20.883,46.836 63.77,46.836 6.207,0 12.98,-0.563 19.188,-1.692"
         style="fill:#1a387b;fill-opacity:1;fill-rule:evenodd;stroke:none"
         id="path34" /><path
         d="m 837.758,872.43 c -41.762,0 -79.57,-25.961 -94.805,-68.848 -9.594,-27.086 -5.082,-62.074 45.145,-62.074 58.125,0 85.777,43.453 94.238,67.719 14.672,40.628 -5.074,63.203 -44.578,63.203 z m -8.465,-24.832 c 22.57,0 25.961,-16.926 18.625,-37.809 -7.902,-22.57 -25.398,-43.449 -50.789,-43.449 -21.445,0 -26.524,16.363 -19.188,36.68 7.899,23.136 25.391,44.578 51.352,44.578"
         style="fill:#1a387b;fill-opacity:1;fill-rule:evenodd;stroke:none"
         id="path36" /><path
         d="m 485.625,771.98 c 3.387,9.032 8.465,21.446 15.238,38.375 -16.933,-11.851 -59.254,-10.722 -67.152,-33.296 -3.953,-11.848 5.641,-15.801 15.797,-14.672 16.367,1.129 36.117,9.593 36.117,9.593 z m -53.047,-29.906 c -40.629,-1.695 -36.68,24.266 -32.164,35.551 18.055,51.352 101.574,34.984 111.168,62.074 4.516,12.414 -8.465,14.672 -18.055,14.11 -11.851,-1.129 -18.625,-2.825 -28.781,-5.082 l 7.899,20.316 c 13.546,2.258 18.621,3.387 37.246,5.078 22.007,1.695 47.402,-5.641 37.246,-33.293 -6.211,-18.058 -24.832,-58.125 -38.375,-95.933 h -33.86 c 1.692,3.382 3.387,8.464 3.387,8.464 0,0 -23.703,-10.722 -45.711,-11.285"
         style="fill:#1a387b;fill-opacity:1;fill-rule:evenodd;stroke:none"
         id="path38" /><path
         d="m 590.586,832.363 c -7.898,-21.445 -33.293,-87.468 -33.293,-87.468 h -34.422 c 1.129,2.253 20.317,52.48 34.422,89.722 15.238,34.426 32.73,40.071 59.816,38.942 7.336,0 15.801,-1.692 22.575,-2.825 l -9.028,-22.007 c -14.109,3.386 -32.168,5.082 -40.07,-16.364"
         style="fill:#1a387b;fill-opacity:1;fill-rule:evenodd;stroke:none"
         id="path40" /></g></g></svg>
